<svg width="23" height="28" viewBox="0 0 23 28" fill="none" xmlns="http://www.w3.org/2000/svg">
<path d="M22.624 0.184877C22.7393 0.262112 22.8338 0.366465 22.8991 0.488726C22.9643 0.610988 22.9984 0.747396 22.9983 0.885909L22.9741 13.5421C22.9737 13.7106 22.9228 13.8752 22.8278 14.0145C22.7328 14.1539 22.5982 14.2617 22.4412 14.3241L22.1279 13.5405L22.4412 14.3241L22.4361 14.3258L22.426 14.3308L22.387 14.3459C22.1644 14.4337 21.9402 14.5177 21.7147 14.5978C21.2676 14.7572 20.6461 14.9721 19.9417 15.185C18.56 15.6076 16.7602 16.0615 15.3539 16.0588C13.9205 16.056 12.7351 15.5813 11.7036 15.1659L11.6562 15.1489C10.5841 14.7165 9.67096 14.3604 8.58788 14.3583C7.40327 14.356 5.81514 14.7411 4.46219 15.1554C3.85642 15.3423 3.25614 15.5466 2.66209 15.7678L2.64218 26.1594C2.64175 26.3832 2.55219 26.5977 2.3932 26.7556C2.23422 26.9135 2.01882 27.002 1.79441 27.0016C1.57 27.0011 1.35495 26.9118 1.19656 26.7533C1.03818 26.5948 0.949446 26.38 0.949875 26.1562L0.998383 0.843748C0.998812 0.619972 1.08837 0.405533 1.24736 0.247603C1.40635 0.0896737 1.62174 0.00119148 1.84615 0.00162154C2.07057 0.0020516 2.28562 0.0913587 2.444 0.249896C2.60238 0.408434 2.69112 0.623216 2.69069 0.846992L2.68978 1.32287C3.07249 1.19029 3.52971 1.0376 4.02754 0.886679C5.40927 0.467451 7.21076 0.0119021 8.61537 0.0145939C10.0369 0.0173181 11.1935 0.486973 12.2031 0.897283L12.2758 0.927798C13.3276 1.35338 14.2441 1.71288 15.3814 1.71506C16.566 1.71733 18.1541 1.33225 19.507 0.91803C20.278 0.679566 21.04 0.413097 21.7915 0.119157L21.8237 0.107406L21.8305 0.104044L21.8321 0.104047L22.624 0.184877ZM21.3037 2.09935C20.9311 2.23026 20.4909 2.37961 20.0066 2.52718C18.635 2.9498 16.8369 3.40367 15.3781 3.40087C13.8787 3.398 12.6849 2.91309 11.6517 2.4926L11.6382 2.48752C10.5779 2.06023 9.69352 1.70416 8.61214 1.70209C7.47998 1.69992 5.89356 2.08332 4.52368 2.50088C3.9058 2.68968 3.29314 2.89502 2.68634 3.11667L2.66553 13.9723C3.03809 13.8414 3.47838 13.6921 3.96266 13.5445C5.33425 13.1202 7.13235 12.668 8.59112 12.6708C10.0245 12.6736 11.2099 13.1483 12.2414 13.5638L12.2888 13.5807C13.3609 14.0131 14.274 14.3692 15.3571 14.3713C16.4876 14.3735 18.0757 13.9901 19.4456 13.5725C20.0634 13.3837 20.6761 13.1783 21.2829 12.9567L21.3037 2.10104L21.3037 2.09935Z" fill="black"/>
</svg>
