<svg width="197" height="87" viewBox="0 0 197 87" fill="none" xmlns="http://www.w3.org/2000/svg">
<path d="M16.3762 0.76756L31.2263 37H27.0908L22.0155 24.5466H9.32706C8.54383 26.583 7.72926 28.6507 6.88337 30.7498C6.0688 32.8489 5.2699 34.9323 4.48667 37H0.398183L14.5904 0.76756H16.3762ZM10.6899 20.975H20.6056C20.167 19.9411 19.7441 18.9386 19.3368 17.9674C18.9295 16.9649 18.5222 15.978 18.115 15.0068C17.7077 14.0042 17.2847 12.986 16.8461 11.9522C16.4388 10.9183 16.0002 9.82175 15.5303 8.66257L10.6899 20.975ZM40.2495 37L29.7229 7.48771H33.6704L41.0954 28.4001C42.3486 24.8912 43.6018 21.398 44.855 17.9204C46.1395 14.4428 47.4083 10.9653 48.6615 7.48771H52.609L42.0353 37H40.2495ZM62.1135 7.48771V37H58.354V7.48771H62.1135ZM81.6502 7.48771L93.4927 37H89.4512L85.8797 28.2591H75.259L71.8285 37H67.787L79.3475 7.48771H81.6502ZM76.5279 24.7815H84.5639C84.2192 23.873 83.8903 23.0271 83.577 22.2439C83.2637 21.4293 82.9504 20.6461 82.6371 19.8942C82.3238 19.1109 81.9948 18.2964 81.6502 17.4505C81.3056 16.6046 80.9453 15.6803 80.5694 14.6778L76.5279 24.7815ZM92.612 7.48771H118.929V10.9653H107.65V37H103.891V10.9653H92.612V7.48771ZM128.344 7.48771V37H124.584V7.48771H128.344ZM150.888 7.06477C153.019 7.06477 155.071 7.42506 157.045 8.14563C159.018 8.83488 160.757 9.83742 162.261 11.1533C163.796 12.4691 165.018 14.0669 165.926 15.9466C166.835 17.8264 167.289 19.9255 167.289 22.2439C167.289 24.5936 166.835 26.7083 165.926 28.5881C165.018 30.4365 163.796 32.0186 162.261 33.3345C160.757 34.6503 159.018 35.6685 157.045 36.3891C155.071 37.0783 153.019 37.4229 150.888 37.4229C148.758 37.4229 146.69 37.0783 144.685 36.3891C142.711 35.6685 140.957 34.6503 139.422 33.3345C137.918 32.0186 136.712 30.4365 135.803 28.5881C134.895 26.7083 134.44 24.5936 134.44 22.2439C134.44 19.9255 134.895 17.8264 135.803 15.9466C136.712 14.0669 137.918 12.4691 139.422 11.1533C140.957 9.83742 142.711 8.83488 144.685 8.14563C146.69 7.42506 148.758 7.06477 150.888 7.06477ZM150.888 10.5423C149.228 10.5423 147.63 10.8243 146.095 11.3882C144.56 11.9208 143.197 12.6884 142.006 13.6909C140.847 14.6935 139.923 15.9153 139.234 17.3565C138.545 18.7976 138.2 20.4268 138.2 22.2439C138.2 24.061 138.545 25.6901 139.234 27.1312C139.923 28.5724 140.847 29.8099 142.006 30.8438C143.197 31.8463 144.56 32.6139 146.095 33.1465C147.63 33.6791 149.228 33.9454 150.888 33.9454C152.549 33.9454 154.131 33.6791 155.635 33.1465C157.17 32.6139 158.517 31.8463 159.676 30.8438C160.867 29.8099 161.807 28.5724 162.496 27.1312C163.185 25.6901 163.53 24.061 163.53 22.2439C163.53 20.4268 163.185 18.7976 162.496 17.3565C161.807 15.9153 160.867 14.6935 159.676 13.6909C158.517 12.6884 157.17 11.9208 155.635 11.3882C154.131 10.8243 152.549 10.5423 150.888 10.5423ZM173.389 37V7.48771H176.631L192.703 21.351V7.48771H196.463V37H192.703V26.1444L177.148 12.7511V37H173.389ZM52.7092 49.7676H64.2228C65.7266 49.7676 67.0424 50.0182 68.1703 50.5195C69.3295 51.0207 70.3007 51.6943 71.0839 52.5402C71.8671 53.3861 72.4467 54.373 72.8227 55.5008C73.23 56.6287 73.4336 57.8192 73.4336 59.0724C73.4336 59.793 73.3239 60.5135 73.1046 61.2341C72.9167 61.9547 72.6504 62.6439 72.3057 63.3019C71.9925 63.9284 71.6008 64.5237 71.1309 65.0876C70.6923 65.6516 70.238 66.1372 69.7681 66.5444C71.6478 67.3277 73.136 68.4712 74.2325 69.975C75.329 71.4475 75.8773 73.2646 75.8773 75.4263C75.8773 76.9928 75.5953 78.434 75.0314 79.7498C74.4675 81.0343 73.6686 82.1465 72.6347 83.0864C71.6008 83.9949 70.332 84.7155 68.8282 85.2481C67.3244 85.7494 65.6326 86 63.7528 86H52.7092V49.7676ZM56.4687 68.9411V82.5224H63.9408C65.3819 82.5224 66.6195 82.3031 67.6533 81.8645C68.6872 81.4259 69.5331 80.862 70.191 80.1727C70.8489 79.4835 71.3345 78.7159 71.6478 77.87C71.9611 77.0241 72.1178 76.1939 72.1178 75.3793C72.1178 73.4682 71.3815 71.9174 69.909 70.7269C68.4679 69.5364 66.5255 68.9411 64.0818 68.9411H56.4687ZM56.4687 53.3391V65.3696H64.1288C64.8493 65.3383 65.5543 65.1503 66.2435 64.8057C66.9328 64.4297 67.5437 63.9598 68.0763 63.3958C68.6089 62.8006 69.0318 62.1427 69.3451 61.4221C69.6584 60.6702 69.8151 59.887 69.8151 59.0724C69.8151 58.3518 69.7054 57.6469 69.4861 56.9577C69.2668 56.2684 68.9222 55.6575 68.4522 55.1249C68.0136 54.5923 67.434 54.1693 66.7134 53.856C66.0242 53.5114 65.194 53.3391 64.2228 53.3391H56.4687ZM86.1943 56.4877V86H82.4348V56.4877H86.1943ZM92.2907 56.4877H118.607V59.9653H107.329V86H103.569V59.9653H92.2907V56.4877ZM124.722 86V56.4877H141.593V59.9653H128.482V68.5182H138.961V71.9958H128.482V82.5224H141.593V86H124.722ZM158.605 69.2701C160.046 69.5834 161.441 69.9594 162.788 70.398C164.166 70.8366 165.372 71.4162 166.406 72.1367C167.44 72.826 168.255 73.6719 168.85 74.6744C169.477 75.677 169.743 76.8988 169.649 78.34C169.555 79.8438 169.085 81.1126 168.239 82.1465C167.424 83.1804 166.359 84.0262 165.043 84.6842C163.759 85.3108 162.318 85.7494 160.72 86C159.122 86.282 157.509 86.376 155.88 86.282C154.313 86.188 152.935 85.9217 151.744 85.4831C150.554 85.0445 149.551 84.5745 148.736 84.0732C147.953 83.5406 147.327 83.0394 146.857 82.5694C146.418 82.0995 146.152 81.7862 146.058 81.6296L148.22 79.8908C148.815 80.4234 149.504 80.909 150.287 81.3476C150.945 81.7235 151.728 82.0995 152.637 82.4754C153.577 82.8201 154.626 83.0237 155.786 83.0864C157.164 83.1177 158.464 83.0237 159.686 82.8044C160.908 82.5851 161.973 82.2718 162.882 81.8645C163.822 81.4259 164.558 80.909 165.09 80.3137C165.654 79.7185 165.952 79.0605 165.983 78.34C166.015 77.4941 165.78 76.7578 165.278 76.1312C164.808 75.4733 164.135 74.9094 163.258 74.4395C162.38 73.9382 161.347 73.5152 160.156 73.1706C158.966 72.7947 157.681 72.45 156.303 72.1367C154.955 71.8548 153.702 71.5102 152.543 71.1029C151.384 70.6643 150.381 70.1317 149.535 69.5051C148.689 68.8472 148.032 68.0796 147.562 67.2024C147.123 66.2938 146.935 65.2286 146.998 64.0068C147.092 62.7536 147.452 61.6257 148.079 60.6232C148.705 59.5893 149.535 58.7434 150.569 58.0855C151.634 57.3963 152.872 56.895 154.282 56.5817C155.692 56.2371 157.211 56.1118 158.84 56.2058C160.062 56.2997 161.19 56.5034 162.224 56.8167C163.289 57.0986 164.213 57.4119 164.996 57.7566C165.78 58.1012 166.422 58.4301 166.923 58.7434C167.424 59.0567 167.753 59.276 167.91 59.4013L165.513 62.127C164.855 61.6884 164.151 61.2968 163.399 60.9522C162.772 60.6389 162.051 60.3569 161.237 60.1063C160.422 59.8243 159.592 59.652 158.746 59.5893C157.618 59.5267 156.569 59.5893 155.598 59.7773C154.626 59.9339 153.781 60.2159 153.06 60.6232C152.339 60.9991 151.76 61.4848 151.321 62.08C150.914 62.6753 150.695 63.3645 150.663 64.1477C150.601 64.9936 150.804 65.6986 151.274 66.2625C151.744 66.7951 152.355 67.2494 153.107 67.6253C153.89 68.0013 154.767 68.3146 155.739 68.5652C156.71 68.8158 157.665 69.0508 158.605 69.2701Z" fill="white"/>
</svg>
